PathFileType	4	(X/Y/Z)	E:/Microgravity/Neeraj_13_07_24_t02 _without_weight_pp.trc	
DataRate	CameraRate	NumFrames	NumMarkers	Units	OrigDataRate	OrigDataStartFrame	OrigNumFrames	
120.00	120.00	90	5	m	120.00	883	7058	
Frame#	Time	RHAND			r_radius_styloid			RWRB			r_humerus_epicondyle			r_acromion			
		X1	Y1	Z1	X2	Y2	Z2	X3	Y3	Z3	X4	Y4	Z4	X5	Y5	Z5	

883	7.350	0.20896	0.87101	0.26298	0.13909	0.94543	0.30568	0.11224	0.90318	0.22011	0.01138	1.14277	0.26522	0.00290	1.52205	0.18324 
884	7.358	0.20930	0.87131	0.26296	0.13933	0.94563	0.30568	0.11252	0.90337	0.22012	0.01136	1.14279	0.26524	0.00286	1.52205	0.18327 
885	7.367	0.20964	0.87160	0.26295	0.13957	0.94584	0.30569	0.11278	0.90355	0.22012	0.01135	1.14282	0.26526	0.00282	1.52205	0.18329 
886	7.375	0.20996	0.87189	0.26293	0.13980	0.94604	0.30569	0.11304	0.90372	0.22012	0.01134	1.14284	0.26528	0.00278	1.52204	0.18332 
887	7.383	0.21029	0.87217	0.26292	0.14004	0.94623	0.30569	0.11329	0.90389	0.22012	0.01133	1.14286	0.26530	0.00274	1.52204	0.18334 
888	7.392	0.21060	0.87245	0.26292	0.14027	0.94643	0.30568	0.11353	0.90406	0.22012	0.01132	1.14288	0.26532	0.00270	1.52204	0.18337 
889	7.400	0.21092	0.87273	0.26292	0.14050	0.94662	0.30568	0.11378	0.90422	0.22012	0.01132	1.14290	0.26534	0.00266	1.52204	0.18339 
890	7.408	0.21122	0.87300	0.26292	0.14073	0.94681	0.30568	0.11402	0.90438	0.22012	0.01131	1.14292	0.26535	0.00262	1.52204	0.18341 
891	7.417	0.21152	0.87327	0.26292	0.14097	0.94701	0.30569	0.11427	0.90455	0.22013	0.01130	1.14294	0.26537	0.00258	1.52205	0.18343 
892	7.425	0.21183	0.87354	0.26293	0.14120	0.94720	0.30569	0.11453	0.90471	0.22013	0.01130	1.14297	0.26538	0.00254	1.52205	0.18345 
893	7.433	0.21213	0.87381	0.26294	0.14142	0.94740	0.30570	0.11480	0.90487	0.22015	0.01129	1.14299	0.26540	0.00250	1.52205	0.18347 
894	7.442	0.21243	0.87408	0.26295	0.14165	0.94759	0.30571	0.11509	0.90502	0.22016	0.01128	1.14302	0.26542	0.00247	1.52205	0.18349 
895	7.450	0.21274	0.87434	0.26296	0.14187	0.94778	0.30572	0.11540	0.90517	0.22019	0.01128	1.14305	0.26543	0.00244	1.52206	0.18350 
896	7.458	0.21304	0.87461	0.26297	0.14208	0.94798	0.30573	0.11572	0.90532	0.22022	0.01127	1.14308	0.26545	0.00241	1.52207	0.18352 
897	7.467	0.21334	0.87488	0.26298	0.14229	0.94818	0.30574	0.11603	0.90546	0.22026	0.01125	1.14311	0.26547	0.00238	1.52208	0.18353 
898	7.475	0.21364	0.87515	0.26299	0.14250	0.94838	0.30575	0.11634	0.90560	0.22029	0.01124	1.14314	0.26549	0.00236	1.52208	0.18355 
899	7.483	0.21393	0.87543	0.26299	0.14271	0.94858	0.30576	0.11664	0.90575	0.22033	0.01122	1.14317	0.26551	0.00233	1.52209	0.18356 
900	7.492	0.21422	0.87570	0.26300	0.14292	0.94878	0.30578	0.11692	0.90589	0.22035	0.01119	1.14321	0.26553	0.00231	1.52210	0.18357 
901	7.500	0.21450	0.87598	0.26300	0.14313	0.94899	0.30579	0.11718	0.90604	0.22037	0.01117	1.14325	0.26556	0.00229	1.52211	0.18358 
902	7.508	0.21478	0.87627	0.26300	0.14334	0.94920	0.30580	0.11742	0.90619	0.22039	0.01114	1.14328	0.26558	0.00227	1.52212	0.18359 
903	7.517	0.21506	0.87657	0.26301	0.14355	0.94942	0.30581	0.11766	0.90635	0.22041	0.01111	1.14332	0.26561	0.00226	1.52213	0.18360 
904	7.525	0.21535	0.87687	0.26301	0.14375	0.94964	0.30583	0.11790	0.90652	0.22042	0.01107	1.14336	0.26563	0.00224	1.52214	0.18361 
905	7.533	0.21563	0.87718	0.26302	0.14396	0.94986	0.30584	0.11813	0.90668	0.22044	0.01104	1.14340	0.26566	0.00222	1.52216	0.18362 
906	7.542	0.21591	0.87750	0.26303	0.14417	0.95008	0.30586	0.11837	0.90685	0.22045	0.01100	1.14345	0.26569	0.00221	1.52217	0.18364 
907	7.550	0.21620	0.87782	0.26304	0.14438	0.95031	0.30588	0.11861	0.90702	0.22045	0.01095	1.14349	0.26572	0.00219	1.52218	0.18365 
908	7.558	0.21648	0.87815	0.26306	0.14459	0.95055	0.30590	0.11886	0.90719	0.22046	0.01091	1.14354	0.26574	0.00218	1.52219	0.18366 
909	7.567	0.21678	0.87848	0.26308	0.14480	0.95079	0.30592	0.11911	0.90736	0.22046	0.01087	1.14358	0.26577	0.00216	1.52221	0.18368 
910	7.575	0.21708	0.87882	0.26311	0.14501	0.95103	0.30595	0.11937	0.90752	0.22047	0.01082	1.14363	0.26580	0.00214	1.52222	0.18369 
911	7.583	0.21739	0.87915	0.26315	0.14523	0.95127	0.30598	0.11964	0.90767	0.22047	0.01078	1.14368	0.26583	0.00212	1.52224	0.18371 
912	7.592	0.21769	0.87949	0.26320	0.14543	0.95151	0.30601	0.11994	0.90780	0.22048	0.01075	1.14373	0.26585	0.00209	1.52226	0.18372 
913	7.600	0.21800	0.87982	0.26325	0.14564	0.95175	0.30605	0.12026	0.90791	0.22049	0.01071	1.14378	0.26588	0.00205	1.52228	0.18373 
914	7.608	0.21830	0.88014	0.26330	0.14585	0.95199	0.30609	0.12061	0.90798	0.22050	0.01068	1.14384	0.26591	0.00201	1.52230	0.18372 
915	7.617	0.21859	0.88046	0.26335	0.14605	0.95223	0.30613	0.12095	0.90807	0.22054	0.01065	1.14389	0.26594	0.00197	1.52233	0.18372 
916	7.625	0.21887	0.88077	0.26340	0.14626	0.95247	0.30617	0.12123	0.90824	0.22061	0.01063	1.14394	0.26597	0.00192	1.52235	0.18371 
917	7.633	0.21915	0.88107	0.26345	0.14646	0.95270	0.30622	0.12146	0.90850	0.22072	0.01061	1.14400	0.26600	0.00188	1.52237	0.18371 
918	7.642	0.21944	0.88138	0.26351	0.14667	0.95293	0.30627	0.12164	0.90882	0.22086	0.01059	1.14405	0.26603	0.00185	1.52240	0.18371 
919	7.650	0.21973	0.88169	0.26358	0.14688	0.95317	0.30632	0.12181	0.90917	0.22099	0.01058	1.14410	0.26606	0.00181	1.52241	0.18371 
920	7.658	0.22001	0.88199	0.26364	0.14710	0.95341	0.30638	0.12201	0.90946	0.22111	0.01056	1.14415	0.26610	0.00178	1.52243	0.18371 
921	7.667	0.22030	0.88230	0.26372	0.14732	0.95365	0.30644	0.12225	0.90973	0.22122	0.01054	1.14420	0.26614	0.00175	1.52245	0.18371 
922	7.675	0.22060	0.88262	0.26379	0.14754	0.95389	0.30650	0.12252	0.90997	0.22133	0.01053	1.14425	0.26618	0.00172	1.52247	0.18371 
923	7.683	0.22089	0.88294	0.26386	0.14776	0.95413	0.30657	0.12282	0.91019	0.22144	0.01051	1.14430	0.26622	0.00169	1.52249	0.18370 
924	7.692	0.22120	0.88327	0.26394	0.14797	0.95438	0.30663	0.12316	0.91040	0.22155	0.01049	1.14435	0.26626	0.00166	1.52251	0.18370 
925	7.700	0.22151	0.88361	0.26402	0.14819	0.95462	0.30670	0.12347	0.91060	0.22165	0.01047	1.14440	0.26631	0.00163	1.52253	0.18370 
926	7.708	0.22182	0.88395	0.26410	0.14841	0.95487	0.30676	0.12376	0.91080	0.22174	0.01045	1.14446	0.26635	0.00160	1.52255	0.18370 
927	7.717	0.22214	0.88430	0.26418	0.14862	0.95512	0.30683	0.12403	0.91100	0.22182	0.01043	1.14451	0.26640	0.00157	1.52257	0.18370 
928	7.725	0.22246	0.88465	0.26426	0.14883	0.95536	0.30690	0.12429	0.91119	0.22189	0.01041	1.14457	0.26645	0.00154	1.52260	0.18370 
929	7.733	0.22277	0.88500	0.26433	0.14904	0.95561	0.30696	0.12454	0.91137	0.22196	0.01038	1.14463	0.26650	0.00151	1.52262	0.18370 
930	7.742	0.22309	0.88535	0.26440	0.14925	0.95586	0.30702	0.12479	0.91156	0.22202	0.01036	1.14468	0.26655	0.00148	1.52264	0.18370 
931	7.750	0.22341	0.88571	0.26447	0.14945	0.95611	0.30709	0.12503	0.91175	0.22207	0.01033	1.14474	0.26660	0.00146	1.52265	0.18371 
932	7.758	0.22374	0.88607	0.26454	0.14966	0.95636	0.30716	0.12526	0.91193	0.22212	0.01030	1.14479	0.26664	0.00143	1.52267	0.18371 
933	7.767	0.22409	0.88645	0.26461	0.14986	0.95661	0.30723	0.12551	0.91212	0.22217	0.01027	1.14484	0.26669	0.00141	1.52268	0.18371 
934	7.775	0.22447	0.88685	0.26468	0.15006	0.95686	0.30730	0.12576	0.91230	0.22221	0.01023	1.14489	0.26674	0.00139	1.52270	0.18372 
935	7.783	0.22486	0.88725	0.26475	0.15027	0.95711	0.30737	0.12602	0.91248	0.22225	0.01020	1.14494	0.26679	0.00137	1.52271	0.18372 
936	7.792	0.22523	0.88764	0.26483	0.15047	0.95736	0.30744	0.12629	0.91266	0.22228	0.01016	1.14498	0.26684	0.00135	1.52272	0.18373 
937	7.800	0.22556	0.88800	0.26491	0.15067	0.95761	0.30751	0.12659	0.91284	0.22231	0.01013	1.14503	0.26690	0.00134	1.52272	0.18374 
938	7.808	0.22588	0.88834	0.26500	0.15087	0.95786	0.30758	0.12690	0.91299	0.22233	0.01009	1.14508	0.26695	0.00132	1.52273	0.18375 
939	7.817	0.22618	0.88868	0.26509	0.15108	0.95811	0.30765	0.12724	0.91312	0.22236	0.01006	1.14513	0.26700	0.00130	1.52274	0.18376 
940	7.825	0.22648	0.88901	0.26518	0.15128	0.95837	0.30771	0.12762	0.91322	0.22239	0.01002	1.14517	0.26705	0.00129	1.52274	0.18377 
941	7.833	0.22677	0.88934	0.26526	0.15149	0.95862	0.30776	0.12804	0.91328	0.22241	0.00998	1.14522	0.26709	0.00127	1.52275	0.18378 
942	7.842	0.22707	0.88967	0.26533	0.15171	0.95887	0.30781	0.12847	0.91334	0.22244	0.00995	1.14526	0.26714	0.00125	1.52275	0.18379 
943	7.850	0.22737	0.89000	0.26539	0.15192	0.95912	0.30786	0.12888	0.91345	0.22248	0.00992	1.14530	0.26719	0.00122	1.52276	0.18380 
944	7.858	0.22767	0.89033	0.26545	0.15215	0.95938	0.30790	0.12928	0.91356	0.22251	0.00989	1.14534	0.26723	0.00120	1.52276	0.18381 
945	7.867	0.22797	0.89066	0.26549	0.15237	0.95963	0.30794	0.12968	0.91368	0.22254	0.00986	1.14538	0.26727	0.00118	1.52276	0.18382 
946	7.875	0.22827	0.89099	0.26553	0.15260	0.95988	0.30798	0.13008	0.91382	0.22256	0.00984	1.14542	0.26732	0.00116	1.52277	0.18384 
947	7.883	0.22858	0.89133	0.26557	0.15284	0.96014	0.30801	0.13049	0.91397	0.22258	0.00982	1.14546	0.26736	0.00114	1.52277	0.18385 
948	7.892	0.22888	0.89166	0.26560	0.15307	0.96039	0.30804	0.13100	0.91404	0.22256	0.00981	1.14549	0.26740	0.00112	1.52278	0.18387 
949	7.900	0.22919	0.89199	0.26563	0.15331	0.96064	0.30807	0.13163	0.91402	0.22252	0.00980	1.14553	0.26743	0.00110	1.52279	0.18389 
950	7.908	0.22951	0.89233	0.26566	0.15355	0.96089	0.30809	0.13229	0.91404	0.22248	0.00979	1.14556	0.26747	0.00108	1.52279	0.18390 
951	7.917	0.22982	0.89266	0.26568	0.15378	0.96113	0.30810	0.13292	0.91413	0.22246	0.00979	1.14559	0.26750	0.00106	1.52280	0.18392 
952	7.925	0.23014	0.89300	0.26570	0.15402	0.96137	0.30812	0.13348	0.91426	0.22245	0.00979	1.14562	0.26752	0.00104	1.52281	0.18393 
953	7.933	0.23047	0.89334	0.26572	0.15425	0.96160	0.30812	0.13393	0.91441	0.22245	0.00979	1.14565	0.26755	0.00102	1.52281	0.18395 
954	7.942	0.23080	0.89369	0.26574	0.15448	0.96183	0.30813	0.13432	0.91458	0.22245	0.00979	1.14568	0.26757	0.00100	1.52281	0.18396 
955	7.950	0.23114	0.89404	0.26575	0.15472	0.96206	0.30813	0.13466	0.91477	0.22246	0.00979	1.14571	0.26760	0.00099	1.52281	0.18399 
956	7.958	0.23148	0.89439	0.26575	0.15495	0.96230	0.30814	0.13496	0.91496	0.22247	0.00979	1.14574	0.26762	0.00098	1.52282	0.18402 
957	7.967	0.23182	0.89474	0.26575	0.15520	0.96254	0.30814	0.13523	0.91515	0.22247	0.00978	1.14576	0.26763	0.00097	1.52282	0.18404 
958	7.975	0.23215	0.89509	0.26574	0.15545	0.96277	0.30814	0.13549	0.91535	0.22247	0.00978	1.14578	0.26765	0.00096	1.52282	0.18407 
959	7.983	0.23249	0.89543	0.26572	0.15570	0.96302	0.30813	0.13573	0.91555	0.22246	0.00977	1.14580	0.26767	0.00095	1.52282	0.18411 
960	7.992	0.23282	0.89578	0.26570	0.15595	0.96326	0.30813	0.13596	0.91576	0.22244	0.00977	1.14583	0.26769	0.00094	1.52282	0.18414 
961	8.000	0.23315	0.89613	0.26567	0.15619	0.96350	0.30812	0.13620	0.91596	0.22243	0.00976	1.14585	0.26771	0.00092	1.52282	0.18417 
962	8.008	0.23348	0.89647	0.26564	0.15644	0.96373	0.30811	0.13643	0.91617	0.22241	0.00975	1.14587	0.26772	0.00091	1.52281	0.18420 
963	8.017	0.23381	0.89682	0.26561	0.15668	0.96397	0.30809	0.13666	0.91638	0.22240	0.00974	1.14589	0.26774	0.00089	1.52281	0.18423 
964	8.025	0.23414	0.89716	0.26557	0.15692	0.96420	0.30807	0.13689	0.91659	0.22238	0.00974	1.14591	0.26776	0.00087	1.52280	0.18427 
965	8.033	0.23448	0.89750	0.26553	0.15716	0.96443	0.30805	0.13713	0.91680	0.22236	0.00973	1.14592	0.26777	0.00085	1.52279	0.18430 
966	8.042	0.23481	0.89785	0.26549	0.15740	0.96466	0.30803	0.13736	0.91701	0.22235	0.00973	1.14594	0.26779	0.00083	1.52278	0.18433 
967	8.050	0.23515	0.89819	0.26544	0.15764	0.96488	0.30800	0.13758	0.91721	0.22233	0.00973	1.14595	0.26780	0.00081	1.52277	0.18436 
968	8.058	0.23549	0.89853	0.26540	0.15788	0.96511	0.30797	0.13780	0.91742	0.22232	0.00973	1.14596	0.26782	0.00079	1.52275	0.18440 
969	8.067	0.23583	0.89887	0.26536	0.15812	0.96533	0.30794	0.13802	0.91762	0.22231	0.00973	1.14598	0.26783	0.00077	1.52274	0.18443 
970	8.075	0.23616	0.89920	0.26532	0.15836	0.96555	0.30791	0.13823	0.91782	0.22229	0.00973	1.14599	0.26785	0.00075	1.52273	0.18446 
971	8.083	0.23648	0.89952	0.26528	0.15859	0.96578	0.30789	0.13844	0.91801	0.22227	0.00973	1.14600	0.26786	0.00073	1.52271	0.18450 
972	8.092	0.23680	0.89984	0.26524	0.15883	0.96600	0.30786	0.13864	0.91820	0.22226	0.00974	1.14602	0.26788	0.00071	1.52270	0.18453 
